<svg width="28" height="28" viewBox="0 0 28 28" fill="none" xmlns="http://www.w3.org/2000/svg">
<path d="M21.1332 7.41235C24.6214 11.511 24.1277 17.645 20.0291 21.1331C15.9304 24.6212 9.7964 24.1276 6.30829 20.0289C2.82017 15.9303 3.31381 9.79627 7.41247 6.30816C11.5111 2.82004 17.6451 3.31368 21.1332 7.41235ZM7.18034 19.2868C10.2603 22.9058 15.6679 23.341 19.2869 20.2611C22.9059 17.1811 23.3411 11.7735 20.2612 8.1545C17.1813 4.53546 11.7737 4.10028 8.15463 7.18021C4.53559 10.2601 4.10041 15.6677 7.18034 19.2868Z" fill="#11151C"/>
<circle cx="13.7211" cy="13.7179" r="9.16086" transform="rotate(-40.399 13.7211 13.7179)" fill="#11151C"/>
<path d="M17.8066 9.15918H12.3101C12.1734 9.15918 12.0424 9.21347 11.9457 9.31011C11.8491 9.40674 11.7948 9.53781 11.7948 9.67448V11.2204H10.2489C10.1122 11.2204 9.98118 11.2747 9.88454 11.3713C9.7879 11.4679 9.73361 11.599 9.73361 11.7357V17.2322C9.73361 17.3689 9.7879 17.4999 9.88454 17.5966C9.98118 17.6932 10.1122 17.7475 10.2489 17.7475H15.7454C15.8821 17.7475 16.0132 17.6932 16.1098 17.5966C16.2064 17.4999 16.2607 17.3689 16.2607 17.2322V15.6863H17.8066C17.9433 15.6863 18.0744 15.632 18.171 15.5354C18.2676 15.4387 18.3219 15.3077 18.3219 15.171V9.67448C18.3219 9.53781 18.2676 9.40674 18.171 9.31011C18.0744 9.21347 17.9433 9.15918 17.8066 9.15918ZM15.2301 16.7169H10.7642V12.251H15.2301V16.7169ZM17.2913 14.6557H16.2607V11.7357C16.2607 11.599 16.2064 11.4679 16.1098 11.3713C16.0132 11.2747 15.8821 11.2204 15.7454 11.2204H12.8254V10.1898H17.2913V14.6557Z" fill="#FCFCFC"/>
</svg>
