<svg width="30" height="29" viewBox="0 0 30 29" fill="none" xmlns="http://www.w3.org/2000/svg">
<g id="Group 18">
<path id="Vector" d="M22.9726 7.88069C26.6118 12.1569 26.0968 18.5566 21.8206 22.1958C17.5444 25.835 11.1447 25.32 7.5055 21.0438C3.8663 16.7676 4.38132 10.3679 8.65752 6.72867C12.9337 3.08946 19.3334 3.60448 22.9726 7.88069ZM8.41534 20.2695C11.6287 24.0453 17.2705 24.4993 21.0463 21.286C24.8221 18.0726 25.2761 12.4308 22.0628 8.65498C18.8495 4.87919 13.2076 4.42515 9.43182 7.6385C5.65602 10.8518 5.20199 16.4937 8.41534 20.2695Z" fill="#11151C"/>
<circle id="Ellipse 26" cx="15.239" cy="14.4617" r="9.55768" transform="rotate(-40.399 15.239 14.4617)" fill="#11151C"/>
<path id="Vector_2" d="M19.5153 10.8222L18.8579 18.9902L17.679 18.8953L18.2415 11.9062L11.2524 11.3437L11.3472 10.1649L19.5153 10.8222Z" fill="#FCFCFC"/>
<path id="Vector_3" d="M11.5319 18.4009L10.7576 17.491L18.4912 10.9095L19.2655 11.8193L11.5319 18.4009Z" fill="#FCFCFC"/>
</g>
</svg>
