<svg width="26" height="26" viewBox="0 0 26 26" fill="none" xmlns="http://www.w3.org/2000/svg">
<path d="M19.4826 6.83368C22.6983 10.6122 22.2432 16.2671 18.4647 19.4828C14.6861 22.6984 9.03126 22.2434 5.81559 18.4648C2.59993 14.6863 3.05501 9.03141 6.83354 5.81574C10.6121 2.60007 16.267 3.05515 19.4826 6.83368ZM6.61954 17.7806C9.4589 21.117 14.4441 21.5182 17.7805 18.6788C21.1169 15.8395 21.518 10.8542 18.6787 7.51787C15.8393 4.18151 10.8541 3.78032 7.51772 6.61968C4.18136 9.45905 3.78017 14.4443 6.61954 17.7806Z" fill="#EFDD8D"/>
<circle cx="12.6492" cy="12.65" r="8.44533" transform="rotate(-40.399 12.6492 12.65)" fill="#EFDD8D"/>
<path d="M16.4276 9.43304L15.8468 16.6505L14.8051 16.5666L15.3021 10.3909L9.12639 9.89391L9.21022 8.85222L16.4276 9.43304Z" fill="#11151C"/>
<path d="M9.37338 16.1299L8.6892 15.3259L15.5227 9.51037L16.2069 10.3143L9.37338 16.1299Z" fill="#11151C"/>
</svg>
