<svg width="24" height="24" viewBox="0 0 24 24" fill="none" xmlns="http://www.w3.org/2000/svg">
<path d="M23.0201 11.51C23.0201 17.8743 17.8744 23.02 11.5101 23.02C5.14567 23.02 -2.24924e-07 17.8743 -5.0312e-07 11.51C-7.81316e-07 5.14559 5.14567 -8.22409e-05 11.51 -8.25191e-05C17.8744 -8.27973e-05 23.0201 5.14559 23.0201 11.51ZM1.35412 11.51C1.35412 17.1296 5.89044 21.6659 11.5101 21.6659C17.1297 21.6659 21.666 17.1296 21.666 11.51C21.666 5.89036 17.1297 1.35404 11.51 1.35404C5.89044 1.35404 1.35412 5.89036 1.35412 11.51Z" fill="#EFDD8D"/>
<ellipse cx="11.5101" cy="11.5097" rx="10.833" ry="10.833" fill="#EFDD8D"/>
<path d="M17.8745 11.5101L11.307 18.0776L10.3592 17.1297L15.9788 11.5101L10.3592 5.89052L11.307 4.94263L17.8745 11.5101Z" fill="#11151C"/>
<path d="M5.41646 12.1875L5.41646 10.8334L16.9265 10.8334L16.9265 12.1875L5.41646 12.1875Z" fill="#11151C"/>
</svg>
