<svg width="23" height="23" viewBox="0 0 23 23" fill="none" xmlns="http://www.w3.org/2000/svg">
<path d="M1.10448e-05 11.5C1.02109e-05 5.14118 5.14119 2.3419e-06 11.5 1.50804e-06C17.8588 6.74184e-07 23 5.14118 23 11.5C23 17.8588 17.8588 23 11.5 23C5.14119 23 1.18786e-05 17.8588 1.10448e-05 11.5ZM21.6471 11.5C21.6471 5.88529 17.1147 1.35294 11.5 1.35294C5.8853 1.35294 1.35295 5.8853 1.35295 11.5C1.35295 17.1147 5.88531 21.6471 11.5 21.6471C17.1147 21.6471 21.6471 17.1147 21.6471 11.5Z" fill="#11151C"/>
<ellipse cx="11.5" cy="11.5002" rx="10.8235" ry="10.8235" transform="rotate(180 11.5 11.5002)" fill="#11151C"/>
<path d="M5.14106 11.4998L11.7028 4.93799L12.6499 5.88505L7.03517 11.4998L12.6499 17.1145L11.7028 18.0615L5.14106 11.4998Z" fill="#FCFCFC"/>
<path d="M17.5883 10.8232L17.5883 12.1762L6.08827 12.1762L6.08827 10.8232L17.5883 10.8232Z" fill="#FCFCFC"/>
</svg>
