<svg width="27" height="27" viewBox="0 0 27 27" fill="none" xmlns="http://www.w3.org/2000/svg">
<circle cx="13.5" cy="13.5" r="13.5" fill="url(#paint0_linear_377_84)"/>
<path d="M9.24375 18.7495C8.75938 18.7495 8.34766 18.5855 8.00859 18.2573C7.66953 17.9292 7.5 17.5308 7.5 17.062C7.5 16.5933 7.66953 16.1948 8.00859 15.8667C8.34766 15.5386 8.75938 15.3745 9.24375 15.3745H17.3813C17.8656 15.3745 18.2773 15.5386 18.6164 15.8667C18.9555 16.1948 19.125 16.5933 19.125 17.062C19.125 17.5308 18.9555 17.9292 18.6164 18.2573C18.2773 18.5855 17.8656 18.7495 17.3813 18.7495H9.24375ZM9.24375 17.6245H17.3813C17.5459 17.6245 17.6841 17.5705 17.7957 17.4625C17.9073 17.3545 17.9629 17.221 17.9625 17.062C17.9625 16.9026 17.9067 16.769 17.7951 16.661C17.6835 16.553 17.5456 16.4991 17.3813 16.4995H9.24375C9.07906 16.4995 8.94092 16.5535 8.82932 16.6615C8.71772 16.7695 8.66211 16.903 8.6625 17.062C8.6625 17.2214 8.7183 17.3551 8.8299 17.4631C8.9415 17.5711 9.07945 17.6249 9.24375 17.6245ZM12.15 14.2495C11.9853 14.2495 11.8472 14.1955 11.7356 14.0875C11.624 13.9795 11.5684 13.846 11.5688 13.687V9.18701C11.5688 9.02764 11.6246 8.89395 11.7362 8.78595C11.8478 8.67795 11.9857 8.62414 12.15 8.62451H16.8C16.9647 8.62451 17.1028 8.67851 17.2144 8.78651C17.326 8.89451 17.3816 9.02801 17.3813 9.18701V13.687C17.3813 13.8464 17.3255 13.9801 17.2139 14.0881C17.1023 14.1961 16.9643 14.2499 16.8 14.2495H12.15ZM12.7313 13.1245H16.2188V9.74951H12.7313V13.1245ZM7.5 13.0964V12.0136H10.3627V13.0964H7.5ZM13.3125 11.437H15.6375V10.3261H13.3125V11.437ZM8.6625 11.437H10.3627V10.3261H8.6625V11.437Z" fill="#11151C"/>
<defs>
<linearGradient id="paint0_linear_377_84" x1="27" y1="18.75" x2="-1.18744e-06" y2="8.0625" gradientUnits="userSpaceOnUse">
<stop stop-color="#DBE3E3"/>
<stop offset="1" stop-color="#EFDD8D"/>
</linearGradient>
</defs>
</svg>
