<svg width="27" height="27" viewBox="0 0 27 27" fill="none" xmlns="http://www.w3.org/2000/svg">
<circle cx="13.5" cy="13.5" r="13.5" fill="url(#paint0_linear_377_91)"/>
<path d="M8.38204 16.1881V18.2425H10.4364L16.4954 12.178L14.4411 10.1236L8.38204 16.1881ZM19.125 16.7962L16.7967 19.1245L13.948 16.2758L14.9177 15.3061L15.4655 15.854L16.8187 14.4953L17.5966 15.2733L16.7967 16.0512L17.3774 16.599L18.1554 15.832L19.125 16.7962ZM10.3597 12.671L7.50003 9.8278L9.82832 7.49951L10.7925 8.46917L9.43936 9.8278L10.0255 10.4085L11.3732 9.04988L12.1511 9.8278L11.3732 10.6002L11.921 11.1481L10.3597 12.671ZM18.0842 10.5729C18.2978 10.3592 18.2978 10.025 18.0842 9.80041L16.8022 8.54039C16.5995 8.32674 16.2434 8.32674 16.0298 8.54039L15.0218 9.54293L17.0761 11.5973L18.0842 10.5729Z" fill="#11151C"/>
<defs>
<linearGradient id="paint0_linear_377_91" x1="27" y1="18.75" x2="-1.18744e-06" y2="8.0625" gradientUnits="userSpaceOnUse">
<stop stop-color="#DBE3E3"/>
<stop offset="1" stop-color="#EFDD8D"/>
</linearGradient>
</defs>
</svg>
