<svg width="5" height="17" viewBox="0 0 5 17" fill="none" xmlns="http://www.w3.org/2000/svg">
<path d="M4.14548 8.24926L0.103808 1.05428C0.0705318 0.996298 0.0442247 0.927459 0.0264083 0.851748C0.00859194 0.776038 -0.000379769 0.694958 1.23181e-05 0.613201C0.000404405 0.531444 0.0101522 0.450634 0.0286923 0.375447C0.0472324 0.300259 0.0741965 0.232187 0.108024 0.17517C0.141851 0.118153 0.18187 0.0733235 0.225765 0.0432749C0.26966 0.0132264 0.316559 -0.00144428 0.363749 0.000112044C0.410939 0.00166837 0.457481 0.0194208 0.500684 0.0523418C0.543887 0.0852629 0.582892 0.132699 0.615442 0.191905L4.89889 7.81807C4.96372 7.93351 5 8.0882 5 8.24926C5 8.41031 4.96372 8.56501 4.89889 8.68045L0.615442 16.3066C0.582892 16.3658 0.543887 16.4133 0.500684 16.4462C0.457481 16.4791 0.410939 16.4968 0.363749 16.4984C0.316559 16.5 0.26966 16.4853 0.225765 16.4552C0.18187 16.4252 0.141851 16.3804 0.108024 16.3233C0.0741965 16.2663 0.0472324 16.1983 0.0286923 16.1231C0.0101522 16.0479 0.000404405 15.9671 1.23181e-05 15.8853C-0.000379769 15.8036 0.00859194 15.7225 0.0264083 15.6468C0.0442247 15.5711 0.0705318 15.5022 0.103808 15.4442L4.14548 8.24926Z" fill="#11151C"/>
</svg>
